<?xml version="1.0" encoding="utf-8"?>
<!-- Generator: Adobe Illustrator 24.2.3, SVG Export Plug-In . SVG Version: 6.00 Build 0)  -->
<svg version="1.1" id="Layer_1" xmlns="http://www.w3.org/2000/svg" xmlns:xlink="http://www.w3.org/1999/xlink" x="0px" y="0px"
	 viewBox="0 0 45.32 50.56" style="enable-background:new 0 0 45.32 50.56;" xml:space="preserve">
<style type="text/css">
	.st0{fill:#8252FF;}
</style>
<path class="st0" d="M21.83,3.11V2.97c0-0.22,0-0.22-0.22-0.2c-0.76,0.1-1.52,0.18-2.28,0.29c-1.74,0.25-3.47,0.56-5.18,1
	c-1.26,0.29-2.5,0.69-3.69,1.19c-1.8,0.8-3.51,1.77-5.13,2.89c-0.8,0.55-1.58,1.12-2.35,1.71c-0.12,0.08-0.19,0.22-0.18,0.37
	c0,0.36,0,0.71,0,1.07c-0.1,3.16,0.03,6.32,0.39,9.46c0.13,1.19,0.33,2.37,0.6,3.54c0.84,3.43,2.22,6.7,4.09,9.69
	c0,0.05,0,0.1,0.1,0.11c0.02-0.07,0.02-0.14,0-0.21v-10.3c0-0.14-0.02-0.27-0.07-0.4c-0.13-0.36-0.27-0.73-0.38-1.09
	c-0.41-1.21-0.68-2.47-0.79-3.75c-0.12-1.83-0.12-3.66-0.09-5.49c-0.02-0.3,0.11-0.59,0.35-0.77c0.57-0.51,1.17-0.99,1.81-1.41
	c0.62-0.38,1.25-0.73,1.88-1.08c0.05,0,0.1-0.09,0.17,0v0.32v26.85c0,0.48,0,1,0,1.45c0,0.12,0.04,0.25,0.12,0.34
	c0.39,0.46,0.78,0.91,1.19,1.34c0.87,0.89,1.77,1.75,2.65,2.62c0,0,0.05,0.07,0.12,0.06s0-0.21,0-0.32c0-10.47,0-20.94,0-31.41V8.07
	c0-0.25,0-0.25,0.22-0.33c0.47-0.19,0.95-0.34,1.45-0.44c0.45-0.1,0.91-0.18,1.37-0.27c0.02,0.11,0.02,0.21,0,0.32v6.1
	c0,4.72,0,9.43,0,14.14c0,4,0,7.92,0,11.88c0,1.8,0,3.6,0,5.39c-0.02,0.12,0.02,0.23,0.11,0.31c0.73,0.57,1.52,1.05,2.36,1.44
	c0.44,0.19,0.88,0.38,1.35,0.53c0.02-0.12,0.02-0.23,0-0.35C21.82,32.22,21.83,17.66,21.83,3.11z"/>
<path class="st0" d="M41.89,20.32c0.2-1.37,0.34-2.74,0.43-4.11c0.07-1,0.11-2,0.13-3c0-1.43,0-2.86,0-4.29
	c0-0.15-0.08-0.29-0.21-0.36c-1.28-0.93-2.62-1.77-4-2.54c-2.12-1.2-4.42-2.05-6.82-2.51c-2.53-0.44-5.09-0.73-7.66-0.85
	c-0.4,0-0.33-0.05-0.33,0.34c0,14.55,0,29.1,0,43.67c-0.01,0.1-0.01,0.21,0,0.31c0.09,0,0.18-0.03,0.26-0.09
	c1.18-0.55,2.29-1.22,3.33-2c0.16-0.11,0.25-0.29,0.23-0.48c0-5,0-10,0-15V6.93c0-0.23,0-0.23,0.22-0.2l1.17,0.16
	c0.5,0.08,0.99,0.2,1.47,0.35c0.15,0.05,0.22,0.13,0.19,0.29v6.46c0,9.22,0,18.44,0,27.67v0.42c0.1-0.04,0.19-0.11,0.25-0.2
	c1.31-1.25,2.53-2.58,3.65-4c0.14-0.16,0.21-0.36,0.2-0.57V23.65c0-4.84,0-9.68,0-14.52c-0.01-0.11-0.01-0.22,0-0.33
	c0.08,0.01,0.16,0.04,0.23,0.08l1.1,0.56c0.98,0.5,1.89,1.12,2.71,1.86c0.09,0.07,0.15,0.18,0.14,0.29c0,1.77,0,3.54-0.06,5.31
	c-0.03,0.55-0.08,1.1-0.17,1.64c-0.22,1.26-0.56,2.51-1,3.71c-0.05,0.13-0.08,0.26-0.08,0.4c0,3.45,0,6.9,0,10.34
	c0,0.06,0,0.13,0.05,0.18s0.07-0.11,0.1-0.16C39.66,29.08,41.17,24.78,41.89,20.32z"/>
<path class="st0" d="M37.2,38.03c1.83-2.56,3.37-5.32,4.59-8.23c2-4.88,3.17-10.06,3.46-15.32c0.15-2.46,0.08-4.93-0.23-7.37
	c-0.01-0.19-0.1-0.36-0.25-0.48C43.01,5.14,41.04,3.92,38.93,3c-3.57-1.56-7.37-2.52-11.25-2.84c-1.64-0.15-3.28-0.2-4.92-0.14
	c-1.98,0.05-3.94,0.25-5.89,0.59c-1.74,0.29-3.46,0.71-5.15,1.24C9.09,2.67,6.57,3.82,4.23,5.27c-1.37,0.87-2.65,1.88-3.83,3
	C0.29,8.37,0.22,8.5,0.21,8.65c-0.07,0.76-0.12,1.52-0.15,2.28c-0.11,2.59-0.05,5.18,0.2,7.76c0.18,1.92,0.47,3.83,0.89,5.72
	c0.55,2.55,1.38,5.04,2.47,7.41c0.82,1.71,1.79,3.34,2.9,4.87c1.89,2.77,4.05,5.34,6.43,7.7c1.8,1.79,3.81,3.36,6,4.65
	c1.02,0.59,2.09,1.09,3.19,1.5c0.14,0.07,0.3,0.07,0.44,0l0.6-0.25c2.47-1.08,4.76-2.52,6.81-4.27C32.73,43.69,35.16,41,37.2,38.03z
	 M27.76,45.57c-1.63,1.22-3.41,2.23-5.29,3c-0.14,0.06-0.31,0.06-0.45,0c-1.96-0.75-3.79-1.78-5.45-3.06
	c-2.01-1.54-3.85-3.29-5.49-5.21c-1.87-2.13-3.56-4.42-5.05-6.83c-1.36-2.28-2.4-4.74-3.08-7.31c-0.52-1.87-0.9-3.78-1.14-5.7
	c-0.29-2.26-0.43-4.53-0.43-6.8c0-1.24,0.06-2.69,0.19-4.14c0.01-0.16,0.08-0.31,0.2-0.42c1.45-1.38,3.08-2.56,4.84-3.52
	c2.27-1.25,4.68-2.21,7.18-2.87c1.41-0.38,2.85-0.68,4.3-0.89c2.23-0.32,4.47-0.45,6.72-0.4c2.58,0.06,5.15,0.39,7.66,1
	c2.91,0.67,5.69,1.81,8.24,3.37c0.86,0.53,1.69,1.13,2.46,1.79c0.15,0.12,0.24,0.3,0.26,0.49c0.21,1.71,0.3,3.43,0.27,5.15
	c-0.09,5.53-1.22,10.99-3.34,16.1c-1.51,3.53-3.5,6.84-5.93,9.82C32.5,41.57,30.26,43.73,27.76,45.57z"/>
</svg>
